<?xml version="1.0" encoding="utf-8"?>
<!-- Generator: Adobe Illustrator 24.2.1, SVG Export Plug-In . SVG Version: 6.00 Build 0)  -->
<svg version="1.1" id="Capa_1" xmlns="http://www.w3.org/2000/svg" xmlns:xlink="http://www.w3.org/1999/xlink" x="0px" y="0px"
	 viewBox="0 0 1920 2379" style="enable-background:new 0 0 1920 2379;" xml:space="preserve">
<g>
	<path d="M1795.2,2038.5h25.7c9.5,0,14,6.1,14,14c0,2.8-0.5,4.8-0.9,5.8h-7.2v-0.4c0.6-1.1,1.1-2.8,1.1-4.8c0-4.4-2.4-6.1-6.6-6.1
		H1795L1795.2,2038.5L1795.2,2038.5z"/>
	<path d="M1815,1994.8c12.5,0,20.7,7.2,20.7,18.4c0,11.2-8.1,18.4-20.7,18.4c-12.5,0-20.7-7.2-20.7-18.4
		C1794.3,2002.1,1802.5,1994.8,1815,1994.8z M1815,2003.6c-7.2,0-13.2,2.6-13.2,9.5s5.9,9.5,13.2,9.5c7.3,0,13.2-2.6,13.2-9.5
		S1822.4,2003.6,1815,2003.6z"/>
	<path d="M1795.2,1979.4h39.6v8.5h-39.6V1979.4z"/>
	<path d="M1795.2,1946.7v-8.1h0.2h4.5h34.8v7.9l-25.2,15.6l0,0h20.4h4.5h0.4v8.1h-0.2h-4.5h-32.2h-2.4h-0.4v-7.9l25.2-15.6l0,0
		h-20.4h-4.5H1795.2z"/>
	<path d="M1828,1894.9h6.8v23.2h-39.6v-8.5h32.8v-11v-3.4L1828,1894.9L1828,1894.9z"/>
	<path d="M1795.2,1881.2h39.6v8.5h-39.6V1881.2z"/>
	<path d="M1802,1848.3L1802,1848.3v3.5v12h9.1v-8.5v-4.5v-0.1h6.8v0.1v4.4v8.5h17v8.5l0,0h-39.6V1848L1802,1848.3L1802,1848.3z"/>
	<path d="M1828,1816.3h6.8v25.8h-39.6v-25.7h6.8v0.1v3.4v13.7h9.1v-11.2v-4.5v-0.1h6.8v0.1v4.4v11.2h10.2v-13.7v-3.4v-0.2h-0.2
		V1816.3z"/>
</g>
</svg>
